<svg version="1" xmlns="http://www.w3.org/2000/svg" width="933.333" height="933.333" viewBox="0 0 700.000000 700.000000"><path d="M206.5 150.2c-1.5 4-3.8 10-5 13.3-1.9 4.8-20.6 53.2-43.8 113-1.9 4.9-8 20.9-13.7 35.5-5.6 14.6-10.6 27.4-11.1 28.5-.5 1.1-4.6 11.9-9.3 24-4.6 12.1-10.4 27.2-12.9 33.5-7.4 19-24.9 64.2-26.3 68-.7 1.9-8.5 22.1-17.3 44.9-8.9 22.7-16.1 41.8-16.1 42.5 0 .8 5.9 1.1 20.6 1.1h20.6l8.7-22.5c9.9-25.5 43-110.9 57.6-148.5 5.3-13.8 12.3-31.8 15.5-40 3.2-8.3 8.9-23.1 12.8-33 3.8-9.9 10.5-27.1 14.8-38.2 4.3-11.1 8-20 8.3-19.8.5.5 4.5 10.9 71.3 183.5 24.7 64.1 45.6 116.9 46.3 117.5 1 .8 29.3 1.2 40.1.6 2.1-.1 2.1-.3-1.2-8.3-1.9-4.6-19.6-50.2-39.4-101.3-19.8-51.2-36.4-93.9-36.9-95-.5-1.1-2.7-6.7-4.9-12.5s-19-49-37.3-96c-18.3-47-34.2-88.1-35.3-91.2-1.2-3.1-2.4-6-2.7-6.3-.4-.3-1.9 2.7-3.4 6.7zM419.1 316.2c.1 117.4.4 146 1.5 153.3 6.1 40 30.1 68.4 68.9 81.5 29.3 9.9 65 9.4 93.7-1.4 27.8-10.5 51.1-34.5 60.7-62.5 5.7-16.6 5.4-7.9 5.6-167.9l.1-147.2h-41.1v141.2c0 77.7-.3 144.5-.7 148.5-1 9.1-3.9 17-9.4 25.3-6.8 10.5-17.3 18.5-30.2 23.4-12.9 4.8-20.7 6.1-36.2 5.9-35.4-.3-58.7-14.6-68.8-42.5l-2.7-7.3-.3-147.3L460 172h-41l.1 144.2z"/></svg>